<?xml version="1.0" encoding="utf-8"?>
<!-- Generator: Adobe Illustrator 19.1.0, SVG Export Plug-In . SVG Version: 6.00 Build 0)  -->
<svg version="1.1" id="Layer_1" xmlns="http://www.w3.org/2000/svg" xmlns:xlink="http://www.w3.org/1999/xlink" x="0px" y="0px"
	 viewBox="0 0 723.1 241.9" style="enable-background:new 0 0 723.1 241.9;" xml:space="preserve">
<style type="text/css">
	.st0{fill:#FFFFFF;stroke:#3D3D3D;stroke-width:10;stroke-miterlimit:10;}
	.st1{fill:#FFFFFF;stroke:#E6E6E6;stroke-width:10;stroke-miterlimit:10;}
	.st2{fill:none;stroke:#E6E6E6;stroke-width:10;stroke-miterlimit:10;}
	.st3{fill:#3D3D3D;}
	.st4{fill:#FFFFFF;}
	.st5{fill:#F7C94A;}
	.st6{fill:#313131;}
	.st7{fill:#0D5E8C;}
	.st8{fill:#0071BC;}
	.st9{fill:none;stroke:#8B8B8B;stroke-width:6;stroke-miterlimit:10;stroke-dasharray:15,20,15,20,15,20;}
	.st10{fill:url(#SVGID_1_);}
	.st11{fill:none;stroke:#3D3D3D;stroke-width:10;stroke-miterlimit:10;}
	.st12{fill:#0075A8;}
	.st13{fill:none;stroke:#3D3D3D;stroke-width:5;stroke-miterlimit:10;stroke-dasharray:10,7,10,7,10,7;}
	.st14{fill:none;stroke:#F1C40F;stroke-width:6;stroke-miterlimit:10;stroke-dasharray:15,20,15,20,15,20;}
	.st15{fill:#29373C;}
	.st16{fill:#F7F9F9;}
	.st17{fill:#CCD1D3;}
	.st18{opacity:0.1;fill:#0071BC;}
	.st19{fill:none;stroke:#F1C40F;stroke-width:4;stroke-linecap:round;stroke-miterlimit:10;}
	.st20{fill:#F1C40F;}
	.st21{fill:none;stroke:#CCD1D3;stroke-width:2;stroke-miterlimit:10;stroke-dasharray:3,2,3,2,3,2;}
	.st22{fill:#CCCCCC;}
	.st23{fill:none;stroke:#CE242B;stroke-width:5;stroke-miterlimit:10;}
	.st24{fill:none;stroke:#CE242B;stroke-width:10;stroke-miterlimit:10;}
	.st25{fill:none;}
	.st26{fill:url(#SVGID_2_);}
	.st27{fill:url(#SVGID_3_);}
	.st28{fill:url(#SVGID_4_);}
	.st29{fill:url(#SVGID_5_);}
	.st30{fill:url(#SVGID_6_);}
	.st31{fill:url(#SVGID_7_);}
	.st32{fill:url(#SVGID_8_);}
	.st33{fill:url(#SVGID_9_);}
	.st34{fill:url(#SVGID_10_);}
	.st35{fill:url(#SVGID_11_);}
	.st36{fill:url(#SVGID_12_);}
	.st37{fill:url(#SVGID_13_);}
	.st38{fill:url(#SVGID_14_);}
	.st39{fill:url(#SVGID_15_);}
	.st40{fill:url(#SVGID_16_);}
	.st41{fill:url(#SVGID_17_);}
	.st42{fill:url(#SVGID_18_);}
	.st43{fill:url(#SVGID_19_);}
	.st44{fill:url(#SVGID_20_);}
	.st45{fill:url(#SVGID_21_);}
	.st46{fill:url(#SVGID_22_);}
	.st47{fill:url(#SVGID_23_);}
	.st48{fill:url(#SVGID_24_);}
	.st49{fill:url(#SVGID_25_);}
	.st50{fill:url(#SVGID_26_);}
	.st51{fill:none;stroke:#3D3D3D;stroke-width:7;stroke-miterlimit:10;}
	.st52{fill:url(#);stroke:#3D3D3D;stroke-width:7;stroke-miterlimit:10;}
	.st53{fill:#FFFFFF;stroke:#3D3D3D;stroke-width:7;stroke-miterlimit:10;}
	.st54{fill:#FFFFFF;stroke:#3D3D3D;stroke-width:5;stroke-miterlimit:10;}
	.st55{opacity:0.3;}
	.st56{fill:#8B8B8B;}
	.st57{fill:#FFFFFF;stroke:#3D3D3D;stroke-width:2;stroke-miterlimit:10;}
	.st58{fill:#2ECC71;}
	.st59{fill:none;stroke:#CCD1D3;stroke-miterlimit:10;stroke-dasharray:2,1,2,1,2,1;}
	.st60{fill:#A3ABAF;}
	.st61{fill:#3498DB;}
	.st62{fill:#2980B9;}
	.st63{fill:#E67E22;}
	.st64{fill:#D35401;}
	.st65{fill:#E49701;}
	.st66{fill:#EADF5A;}
	.st67{fill:#D7C320;}
	.st68{fill:#34495E;}
	.st69{fill:#2C3E50;}
	.st70{fill:#2B2B2B;}
	.st71{fill:#262626;}
	.st72{fill:#3A6F81;}
	.st73{fill:#356272;}
	.st74{fill:#00558B;}
	.st75{fill:#27AE60;}
	.st76{fill:#A5C63B;}
	.st77{fill:#8EB021;}
	.st78{fill:#ECF0F1;}
	.st79{fill:#BDC3C7;}
	.st80{fill:#95A5A6;}
	.st81{fill:#7F8C8D;}
	.st82{fill:#E74C3C;}
	.st83{fill:#C0392B;}
	.st84{fill:#F15354;}
	.st85{fill:#EA3738;}
	.st86{fill:#78C9CF;}
	.st87{fill:#389EA8;}
	.st88{fill:#2D8490;}
	.st89{fill:#1A6470;}
	.st90{fill:#21364A;}
	.st91{fill:#040B15;}
	.st92{fill:#99A3A8;}
	.st93{fill:#66767C;}
	.st94{fill:#334851;}
	.st95{fill:#5C686F;}
	.st96{fill:#0A141A;}
	.st97{fill:none;stroke:#F1C40F;stroke-width:2;stroke-miterlimit:10;}
	.st98{fill:none;stroke:#D35401;stroke-width:5;stroke-linecap:round;stroke-linejoin:round;stroke-miterlimit:10;}
	.st99{fill:#E6E6E6;}
	.st100{fill:#006BB7;}
	.st101{fill:#E5F1F8;}
	.st102{fill:#0C5988;}
	.st103{fill:#25343A;}
	.st104{fill:#DEEBF2;}
	.st105{fill:#B7C5CD;}
</style>
<g>
	<path class="st3" d="M295.1,96.2c0.3,0,0.6,0.1,0.9,0.2s0.6,0.3,0.8,0.6l4.8,5.1c-2.1,2.8-4.8,4.8-7.9,6.2s-6.9,2.1-11.3,2.1
		c-4,0-7.6-0.7-10.7-2s-5.8-3.2-8-5.6c-2.2-2.4-3.9-5.2-5.1-8.5c-1.2-3.3-1.8-6.8-1.8-10.7c0-3.9,0.6-7.5,1.9-10.8
		c1.3-3.3,3.1-6.1,5.4-8.5c2.3-2.4,5.1-4.2,8.3-5.5c3.2-1.3,6.8-2,10.6-2c2,0,3.8,0.2,5.6,0.5c1.7,0.3,3.4,0.8,4.9,1.4
		c1.5,0.6,2.9,1.3,4.2,2.2c1.3,0.9,2.4,1.8,3.4,2.8l-4.1,5.5c-0.3,0.3-0.6,0.6-0.9,0.9c-0.4,0.3-0.9,0.4-1.5,0.4
		c-0.4,0-0.8-0.1-1.2-0.3c-0.4-0.2-0.8-0.4-1.2-0.7c-0.4-0.3-0.9-0.6-1.4-0.9c-0.5-0.3-1.1-0.6-1.8-0.9c-0.7-0.3-1.5-0.5-2.5-0.7
		c-0.9-0.2-2.1-0.3-3.3-0.3c-2,0-3.9,0.4-5.5,1.1c-1.7,0.7-3.1,1.8-4.3,3.3c-1.2,1.4-2.1,3.2-2.8,5.3c-0.7,2.1-1,4.4-1,7.1
		c0,2.7,0.4,5.1,1.1,7.2c0.7,2.1,1.7,3.8,3,5.3c1.3,1.4,2.7,2.5,4.4,3.3c1.7,0.7,3.5,1.1,5.4,1.1c1.1,0,2.1-0.1,3-0.2
		c0.9-0.1,1.8-0.3,2.6-0.5s1.5-0.6,2.2-1c0.7-0.4,1.4-1,2.1-1.6c0.3-0.2,0.6-0.4,0.9-0.6C294.4,96.3,294.7,96.2,295.1,96.2z"/>
	<path class="st3" d="M362.6,83.5c0,3.8-0.7,7.3-2,10.6c-1.3,3.3-3.2,6.1-5.5,8.5s-5.2,4.3-8.6,5.7c-3.3,1.4-7.1,2.1-11.1,2.1
		s-7.8-0.7-11.2-2.1c-3.4-1.4-6.2-3.3-8.6-5.7c-2.4-2.4-4.2-5.2-5.5-8.5c-1.3-3.3-2-6.8-2-10.6s0.7-7.3,2-10.6
		c1.3-3.3,3.2-6.1,5.5-8.5c2.4-2.4,5.3-4.3,8.6-5.7c3.4-1.4,7.1-2.1,11.2-2.1s7.8,0.7,11.1,2.1c3.3,1.4,6.2,3.3,8.6,5.7
		c2.4,2.4,4.2,5.2,5.5,8.5C361.9,76.2,362.6,79.7,362.6,83.5z M350.1,83.5c0-2.6-0.3-4.9-1-7c-0.7-2.1-1.6-3.8-2.9-5.3
		c-1.3-1.4-2.8-2.5-4.6-3.3c-1.8-0.8-3.9-1.2-6.2-1.2c-2.4,0-4.4,0.4-6.3,1.2c-1.8,0.8-3.4,1.9-4.6,3.3c-1.3,1.4-2.2,3.2-2.9,5.3
		c-0.7,2.1-1,4.4-1,7c0,2.6,0.3,5,1,7c0.7,2.1,1.6,3.8,2.9,5.3c1.3,1.4,2.8,2.5,4.6,3.3s3.9,1.1,6.3,1.1c2.3,0,4.4-0.4,6.2-1.1
		c1.8-0.8,3.4-1.9,4.6-3.3c1.3-1.4,2.2-3.2,2.9-5.3S350.1,86.1,350.1,83.5z"/>
	<path class="st3" d="M420.9,57.3v52.5h-6.3c-0.9,0-1.7-0.1-2.4-0.5c-0.6-0.3-1.3-0.8-1.9-1.6l-24.7-31.3c0.1,0.9,0.2,1.8,0.2,2.7
		s0.1,1.7,0.1,2.5v28.1h-10.7V57.3h6.4c0.5,0,1,0,1.3,0.1c0.4,0,0.7,0.1,1,0.3c0.3,0.1,0.6,0.3,0.8,0.6c0.3,0.2,0.6,0.6,0.9,1
		l24.9,31.5c-0.1-1-0.2-2-0.3-2.9c0-0.9-0.1-1.8-0.1-2.7V57.3H420.9z"/>
	<path class="st3" d="M483.5,57.3l-21,52.5h-11l-21-52.5h9.8c1.1,0,1.9,0.2,2.6,0.7s1.1,1.1,1.5,1.9L454.5,88c0.5,1.2,0.9,2.6,1.4,4
		c0.5,1.5,0.9,3,1.3,4.6c0.3-1.6,0.7-3.1,1.1-4.6c0.4-1.5,0.9-2.8,1.4-4l10.1-28.1c0.3-0.7,0.7-1.3,1.4-1.8c0.7-0.5,1.5-0.8,2.5-0.8
		H483.5z"/>
	<path class="st3" d="M542.7,83.5c0,3.8-0.7,7.3-2,10.6c-1.3,3.3-3.2,6.1-5.5,8.5s-5.2,4.3-8.6,5.7c-3.3,1.4-7.1,2.1-11.1,2.1
		c-4.1,0-7.8-0.7-11.2-2.1c-3.4-1.4-6.2-3.3-8.6-5.7c-2.4-2.4-4.2-5.2-5.5-8.5c-1.3-3.3-2-6.8-2-10.6s0.7-7.3,2-10.6
		c1.3-3.3,3.2-6.1,5.5-8.5c2.4-2.4,5.3-4.3,8.6-5.7c3.4-1.4,7.1-2.1,11.2-2.1c4.1,0,7.8,0.7,11.1,2.1c3.3,1.4,6.2,3.3,8.6,5.7
		c2.4,2.4,4.2,5.2,5.5,8.5C542,76.2,542.7,79.7,542.7,83.5z M530.2,83.5c0-2.6-0.3-4.9-1-7c-0.7-2.1-1.6-3.8-2.9-5.3
		c-1.3-1.4-2.8-2.5-4.6-3.3c-1.8-0.8-3.9-1.2-6.2-1.2c-2.4,0-4.4,0.4-6.3,1.2c-1.8,0.8-3.4,1.9-4.6,3.3c-1.3,1.4-2.2,3.2-2.9,5.3
		c-0.7,2.1-1,4.4-1,7c0,2.6,0.3,5,1,7c0.7,2.1,1.6,3.8,2.9,5.3c1.3,1.4,2.8,2.5,4.6,3.3s3.9,1.1,6.3,1.1c2.3,0,4.4-0.4,6.2-1.1
		c1.8-0.8,3.4-1.9,4.6-3.3c1.3-1.4,2.2-3.2,2.9-5.3S530.2,86.1,530.2,83.5z"/>
	<path class="st3" d="M577,89.8v19.9h-12.2V89.8l-19-32.5h10.7c1.1,0,1.9,0.2,2.5,0.7c0.6,0.5,1.1,1.1,1.5,1.9l7.4,15.3
		c0.6,1.2,1.2,2.3,1.7,3.4c0.5,1,0.9,2.1,1.3,3.1c0.4-1,0.8-2.1,1.2-3.1c0.5-1,1-2.2,1.6-3.3l7.3-15.3c0.2-0.3,0.4-0.6,0.6-0.9
		c0.2-0.3,0.5-0.6,0.8-0.8c0.3-0.3,0.7-0.5,1.1-0.6s0.9-0.2,1.4-0.2H596L577,89.8z"/>
	<path class="st12" d="M291.3,160v9.7h-31.6v-52.5h12.2V160H291.3z"/>
	<path class="st12" d="M353.1,143.5c0,3.8-0.7,7.3-2,10.6c-1.3,3.3-3.2,6.1-5.5,8.5s-5.2,4.3-8.6,5.7c-3.3,1.4-7.1,2.1-11.1,2.1
		s-7.8-0.7-11.2-2.1c-3.4-1.4-6.2-3.3-8.6-5.7c-2.4-2.4-4.2-5.2-5.5-8.5c-1.3-3.3-2-6.8-2-10.6s0.7-7.3,2-10.6
		c1.3-3.3,3.2-6.1,5.5-8.5c2.4-2.4,5.3-4.3,8.6-5.7c3.4-1.4,7.1-2.1,11.2-2.1s7.8,0.7,11.1,2.1c3.3,1.4,6.2,3.3,8.6,5.7
		c2.4,2.4,4.2,5.2,5.5,8.5C352.5,136.2,353.1,139.7,353.1,143.5z M340.7,143.5c0-2.6-0.3-4.9-1-7c-0.7-2.1-1.6-3.8-2.9-5.3
		c-1.3-1.4-2.8-2.5-4.6-3.3c-1.8-0.8-3.9-1.2-6.2-1.2c-2.4,0-4.4,0.4-6.3,1.2c-1.8,0.8-3.4,1.9-4.6,3.3c-1.3,1.4-2.2,3.2-2.9,5.3
		c-0.7,2.1-1,4.4-1,7c0,2.6,0.3,5,1,7c0.7,2.1,1.6,3.8,2.9,5.3c1.3,1.4,2.8,2.5,4.6,3.3s3.9,1.1,6.3,1.1c2.3,0,4.4-0.4,6.2-1.1
		c1.8-0.8,3.4-1.9,4.6-3.3c1.3-1.4,2.2-3.2,2.9-5.3S340.7,146.1,340.7,143.5z"/>
	<path class="st12" d="M411.5,117.3v52.5h-6.3c-0.9,0-1.7-0.1-2.4-0.5c-0.6-0.3-1.3-0.8-1.9-1.6l-24.7-31.3c0.1,0.9,0.2,1.8,0.2,2.7
		s0.1,1.7,0.1,2.5v28.1h-10.7v-52.5h6.4c0.5,0,1,0,1.3,0.1c0.4,0,0.7,0.1,1,0.3c0.3,0.1,0.6,0.3,0.8,0.6c0.3,0.2,0.6,0.6,0.9,1
		l24.9,31.5c-0.1-1-0.2-2-0.3-2.9c0-0.9-0.1-1.8-0.1-2.7v-27.8H411.5z"/>
	<path class="st12" d="M452.2,142.6h18.6v22.1c-2.7,2-5.5,3.4-8.6,4.3s-6.2,1.3-9.5,1.3c-4.3,0-8.2-0.7-11.8-2s-6.6-3.2-9.1-5.6
		c-2.5-2.4-4.5-5.2-5.8-8.5c-1.4-3.3-2.1-6.8-2.1-10.7c0-3.9,0.6-7.5,1.9-10.8c1.3-3.3,3.1-6.1,5.6-8.5s5.3-4.2,8.7-5.5
		s7.2-2,11.5-2c2.2,0,4.2,0.2,6.2,0.5c1.9,0.4,3.7,0.9,5.3,1.5c1.6,0.6,3.1,1.4,4.4,2.2c1.3,0.9,2.5,1.8,3.6,2.8l-3.5,5.4
		c-0.6,0.8-1.3,1.4-2.1,1.5c-0.9,0.2-1.8,0-2.8-0.6c-1-0.6-1.9-1.1-2.7-1.5c-0.9-0.4-1.7-0.8-2.6-1c-0.9-0.3-1.8-0.5-2.8-0.6
		c-1-0.1-2.1-0.2-3.3-0.2c-2.3,0-4.3,0.4-6.2,1.2c-1.8,0.8-3.4,1.9-4.7,3.4c-1.3,1.5-2.3,3.2-3,5.3c-0.7,2.1-1,4.3-1,6.9
		c0,2.8,0.4,5.3,1.2,7.4c0.8,2.2,1.9,4,3.3,5.5c1.4,1.5,3.1,2.6,5,3.4c2,0.8,4.1,1.2,6.5,1.2c1.5,0,2.8-0.1,4-0.4
		c1.2-0.3,2.3-0.7,3.5-1.2v-8h-5.2c-0.8,0-1.4-0.2-1.8-0.6c-0.4-0.4-0.6-0.9-0.6-1.5V142.6z"/>
	<path class="st12" d="M530.2,117.3v52.5H518v-22.2h-21.3v22.2h-12.2v-52.5h12.2v21.9H518v-21.9H530.2z"/>
	<path class="st12" d="M597.3,143.5c0,3.8-0.7,7.3-2,10.6c-1.3,3.3-3.2,6.1-5.5,8.5s-5.2,4.3-8.6,5.7c-3.3,1.4-7.1,2.1-11.1,2.1
		s-7.8-0.7-11.2-2.1c-3.4-1.4-6.2-3.3-8.6-5.7c-2.4-2.4-4.2-5.2-5.5-8.5c-1.3-3.3-2-6.8-2-10.6s0.7-7.3,2-10.6
		c1.3-3.3,3.2-6.1,5.5-8.5c2.4-2.4,5.3-4.3,8.6-5.7c3.4-1.4,7.1-2.1,11.2-2.1s7.8,0.7,11.1,2.1c3.3,1.4,6.2,3.3,8.6,5.7
		c2.4,2.4,4.2,5.2,5.5,8.5C596.6,136.2,597.3,139.7,597.3,143.5z M584.8,143.5c0-2.6-0.3-4.9-1-7c-0.7-2.1-1.6-3.8-2.9-5.3
		c-1.3-1.4-2.8-2.5-4.6-3.3c-1.8-0.8-3.9-1.2-6.2-1.2c-2.4,0-4.4,0.4-6.3,1.2c-1.8,0.8-3.4,1.9-4.6,3.3c-1.3,1.4-2.2,3.2-2.9,5.3
		c-0.7,2.1-1,4.4-1,7c0,2.6,0.3,5,1,7c0.7,2.1,1.6,3.8,2.9,5.3c1.3,1.4,2.8,2.5,4.6,3.3s3.9,1.1,6.3,1.1c2.3,0,4.4-0.4,6.2-1.1
		c1.8-0.8,3.4-1.9,4.6-3.3c1.3-1.4,2.2-3.2,2.9-5.3S584.8,146.1,584.8,143.5z"/>
	<path class="st12" d="M652.7,169.8h-11c-2,0-3.5-0.8-4.4-2.3l-8.7-15.2c-0.4-0.6-0.9-1.1-1.4-1.4c-0.5-0.3-1.2-0.4-2.2-0.4H622
		v19.4h-12.2v-52.5h17.1c3.8,0,7,0.4,9.7,1.2c2.7,0.8,4.9,1.9,6.6,3.3c1.7,1.4,2.9,3,3.7,4.9c0.8,1.9,1.2,4,1.2,6.2
		c0,1.7-0.2,3.3-0.7,4.8c-0.5,1.5-1.1,2.9-2,4.2c-0.9,1.3-2,2.4-3.3,3.4c-1.3,1-2.8,1.8-4.5,2.5c0.8,0.4,1.5,0.9,2.2,1.5
		c0.7,0.6,1.3,1.3,1.9,2.2L652.7,169.8z M626.9,142c1.7,0,3.1-0.2,4.2-0.6c1.2-0.4,2.1-1,2.9-1.7c0.7-0.7,1.3-1.6,1.6-2.6
		c0.3-1,0.5-2.1,0.5-3.2c0-2.3-0.8-4.1-2.2-5.4c-1.5-1.3-3.8-1.9-7-1.9H622V142H626.9z"/>
	<path class="st12" d="M708.4,117.3v52.5H702c-0.9,0-1.7-0.1-2.4-0.5c-0.6-0.3-1.3-0.8-1.9-1.6L673,136.5c0.1,0.9,0.2,1.8,0.2,2.7
		s0.1,1.7,0.1,2.5v28.1h-10.7v-52.5h6.4c0.5,0,1,0,1.3,0.1c0.4,0,0.7,0.1,1,0.3c0.3,0.1,0.6,0.3,0.8,0.6c0.3,0.2,0.6,0.6,0.9,1
		l24.9,31.5c-0.1-1-0.2-2-0.3-2.9c0-0.9-0.1-1.8-0.1-2.7v-27.8H708.4z"/>
</g>
<path class="st12" d="M248.6,79.4c0.9,5-2.7,9-7.6,9h-15.3c-0.4,0-0.5,0-0.9,0V77.3c0.4,0,0.5,0,0.9,0h4.1c5.1,0,9.2-4.1,9.2-9.2V64
	c0-5.1,1.2-9.2,2.8-9.2c1.6,0,3.5,4.1,4.3,9L248.6,79.4L248.6,79.4z M221.2,78c-2.8,0.9-4.8,2.8-4.8,5s2,3.9,4.8,5V78L221.2,78z
	 M211.9,66.1h-24.8c-0.2,0-0.4,0-0.5,0H161c-0.4,0-0.5,0-0.9,0v-2.3c0-5.1-1.2-9.2-2.8-9.2c-1.6,0-3.5,4.1-4.3,9l-2.7,15.6
	c-0.9,5,2.7,9,7.6,9h15.3c1.6,0,3-0.2,4.4-0.7c-0.5,2.7-2.8,4.6-5.5,4.6h-21.5c-3.5,0-6-3.2-5.5-6.6l2.1-13.1
	c0.5-3.4-2.1-6.6-5.5-6.6H35.1c-2.3,0-4.3,1.4-5.1,3.4L9.9,100c-0.4,0.5-0.4,1.2,0.2,1.6l3.9,4.6c0.5,0.5,1.4,0.7,2,0.2l13.7-10.8
	v65.8c0,3,2.5,5.7,5.7,5.7h30.3c3,0,5.7-2.5,5.7-5.7v-22.7c0-3,2.5-5.7,5.7-5.7h75.7c3.2,0,5.7,2.5,5.7,5.7v22.7
	c0,3,2.5,5.7,5.7,5.7h30.3c3,0,5.7-2.5,5.7-5.7v-24.5h-16.1c-5.1,0-9.2-4.1-9.2-9.2v-15.8c0-3,1.4-5.7,3.7-7.3v18.8
	c0,5.1,4.1,9.2,9.2,9.2h24.8c5.1,0,9.2-4.1,9.2-9.2V75.5C221.2,70.4,217.1,66.1,211.9,66.1L211.9,66.1z"/>
<g>
	<g>
		<path class="st15" d="M176.5,84.8c10.3-6.2,25.8-5,33.8-3.8c7.5,1.2,12.7,3.9,16.7,8.1V78c0-13.4-3.4-24.2-28-24.2
			c-24.2,0-28,10.8-28,24.2v11.2C172,87.5,174.5,86,176.5,84.8z"/>
	</g>
	<path class="st16" d="M200.6,51.3c-0.5-0.1-1.4-0.1-1.9,0C180.9,56.4,175,53.6,175,78v8.1c0-0.2,0.5-0.4,0.8-0.6l-0.5,0.6
		c6.5-4.8,16.1-5.8,23.8-6c7.7,0.2,17.3,1.3,23.9,6l-0.2-0.6c0.3,0.2,1.1,0.4,1.1,0.6V78C224,53.6,218.3,56.4,200.6,51.3z"/>
	<path class="st17" d="M222.1,83.1h-0.9v-0.6h0.9V83.1z M222.1,81.5h-0.9v-1.4h0.9V81.5z M222.1,79.1h-0.9l0-1.4h0.9L222.1,79.1z
		 M221.1,76.8c0-0.5,0-0.9,0-1.4l0.9,0c0,0.5,0,0.9,0,1.4L221.1,76.8z M221.1,74.4c0-0.5,0-0.9,0-1.4l0.9,0c0,0.5,0,0.9,0,1.4
		L221.1,74.4z M221,72.1c0-0.5,0-0.9-0.1-1.4l0.9-0.1c0,0.5,0.1,0.9,0.1,1.4L221,72.1z M220.9,69.8c0-0.5-0.1-0.9-0.1-1.4l0.9-0.1
		c0.1,0.5,0.1,0.9,0.1,1.4L220.9,69.8z M220.6,67.5c-0.1-0.5-0.1-0.9-0.2-1.4l0.9-0.2c0.1,0.5,0.2,0.9,0.2,1.4L220.6,67.5z
		 M220.2,65.2c-0.1-0.5-0.2-0.9-0.3-1.3l0.9-0.3c0.1,0.4,0.2,0.9,0.3,1.4L220.2,65.2z M219.6,63c-0.1-0.4-0.3-0.9-0.5-1.3l0.9-0.4
		c0.2,0.4,0.3,0.9,0.5,1.4L219.6,63z M218.8,60.9c-0.2-0.4-0.4-0.8-0.7-1.2l0.8-0.5c0.2,0.4,0.5,0.8,0.7,1.3L218.8,60.9z
		 M217.6,58.9c-0.3-0.4-0.6-0.7-0.9-1l0.7-0.6c0.3,0.4,0.6,0.7,0.9,1.1L217.6,58.9z M216.1,57.3c-0.3-0.3-0.7-0.6-1-0.8l0.5-0.8
		c0.4,0.3,0.8,0.6,1.1,0.9L216.1,57.3z M214.3,56c-0.4-0.2-0.8-0.4-1.2-0.6l0.4-0.9c0.5,0.2,0.9,0.4,1.3,0.6L214.3,56z M212.3,55
		c-0.4-0.1-0.9-0.3-1.3-0.4l0.2-0.9c0.5,0.1,1,0.2,1.4,0.4L212.3,55z"/>
	<path class="st17" d="M177.5,83.1h-0.9v-0.6h0.9V83.1z M177.5,81.5h-0.9v-1.4h0.9V81.5z M177.5,79.1h-0.9l0-1.4l0.9,0L177.5,79.1z
		 M177.5,76.8l-0.9,0c0-0.5,0-0.9,0-1.4l0.9,0C177.5,75.8,177.5,76.3,177.5,76.8z M177.5,74.4l-0.9,0c0-0.5,0-0.9,0-1.4l0.9,0
		C177.6,73.5,177.6,74,177.5,74.4z M177.6,72.1l-0.9,0c0-0.5,0-0.9,0.1-1.4l0.9,0.1C177.7,71.2,177.6,71.6,177.6,72.1z M177.8,69.8
		l-0.9-0.1c0-0.5,0.1-0.9,0.1-1.4l0.9,0.1C177.9,68.9,177.8,69.3,177.8,69.8z M178,67.5l-0.9-0.1c0.1-0.5,0.1-0.9,0.2-1.4l0.9,0.2
		C178.2,66.6,178.1,67,178,67.5z M178.4,65.2l-0.9-0.2c0.1-0.5,0.2-0.9,0.3-1.4l0.9,0.3C178.7,64.3,178.5,64.8,178.4,65.2z M179,63
		l-0.9-0.3c0.2-0.5,0.3-0.9,0.5-1.4l0.9,0.4C179.4,62.1,179.2,62.6,179,63z M179.9,60.9l-0.8-0.4c0.2-0.4,0.5-0.9,0.7-1.3l0.8,0.5
		C180.3,60.1,180.1,60.5,179.9,60.9z M181.1,58.9l-0.8-0.5c0.3-0.4,0.6-0.8,0.9-1.1l0.7,0.6C181.6,58.2,181.3,58.6,181.1,58.9z
		 M182.5,57.3l-0.6-0.7c0.4-0.3,0.7-0.6,1.1-0.9l0.5,0.8C183.2,56.7,182.9,57,182.5,57.3z M184.3,56l-0.5-0.8
		c0.4-0.2,0.9-0.5,1.3-0.6l0.4,0.9C185.1,55.5,184.7,55.7,184.3,56z M186.4,55l-0.3-0.9c0.4-0.1,0.9-0.3,1.4-0.4l0.2,0.9
		C187.2,54.8,186.8,54.9,186.4,55z"/>
	<path class="st20" d="M174.8,120.3c-0.2,0-0.4-0.1-0.6-0.2c-0.3-0.3-0.3-0.8,0-1.1c5.7-5.7,12.9-7,17.9-7c0.4,0,0.8,0.4,0.8,0.8
		s-0.4,0.8-0.8,0.8c-4.8,0-11.5,1.1-16.8,6.5C175.2,120.2,175,120.3,174.8,120.3z"/>
	<path class="st15" d="M229.8,89c-3.8-4.8-10-7.8-18.3-9.1c-8.8-1.4-25.4-2.7-36.7,4.2c-2,1.2-3.9,2.9-5.7,5c-0.4,0.5-0.4,1.1,0,1.6
		c0.2,0.3,0.6,0.4,0.9,0.4c0.2,0,0.4-0.1,0.6-0.2c0.1,0,6.6-3.8,17-5.7c9.5-1.7,24.3-2.1,40.7,5.6c0.5,0.2,1.1,0.1,1.5-0.3
		C230.2,90.1,230.2,89.5,229.8,89z"/>
	<g>
		<g>
			<path class="st20" d="M174.6,121.4c-0.2,0.3-1.2,1.3-1.4,1.4l0,0c0-0.2-0.1-1.7,0-2c0.2-0.4,0.6-0.5,1-0.4
				C174.6,120.6,174.7,121,174.6,121.4z M172.3,121.6C172.3,121.6,172.3,121.6,172.3,121.6l-1-1.2c0.3-0.2,0.6-0.3,0.8-0.3
				c0.4-0.1,0.8,0.2,0.8,0.7C173,121.2,172.7,121.5,172.3,121.6z"/>
		</g>
		<g>
			<path class="st20" d="M170.5,123.1c0.4-0.1,0.7-0.5,0.6-0.9c-0.1-0.4-0.5-0.7-0.9-0.6c-0.2,0-0.7,0.3-1.1,0.6
				c-0.4,0.3-0.7,0.6-0.7,0.6s0.4,0.1,0.9,0.2C169.8,123,170.3,123.1,170.5,123.1z M170.3,121.1c0,0,0.5-0.4,1.1-0.7l0.9,1.2
				c-0.2,0-0.7-0.1-1.2-0.2C170.7,121.2,170.3,121.1,170.3,121.1z M171,124.2c-0.1,0.4-1.1,1.4-1.2,1.6l0,0c-0.1-0.2-0.3-1.6-0.2-2
				c0.1-0.4,0.5-0.6,0.9-0.5C170.9,123.4,171.1,123.9,171,124.2z M172.7,122.8c-0.1,0.2-0.4,0.6-0.7,0.9c-0.3,0.3-0.6,0.6-0.6,0.6
				s-0.1-0.4-0.1-0.9c0-0.5-0.1-1,0-1.2c0.1-0.4,0.6-0.6,1-0.4C172.7,122,172.9,122.4,172.7,122.8z M168.8,124.7
				C168.8,124.7,168.7,124.7,168.8,124.7l-1.1-1c0.3-0.2,0.6-0.4,0.7-0.4c0.4-0.1,0.8,0.2,0.9,0.6
				C169.4,124.2,169.2,124.6,168.8,124.7z"/>
		</g>
		<g>
			<path class="st20" d="M167.2,126.5c0.4-0.1,0.6-0.5,0.5-0.9c-0.1-0.4-0.5-0.6-1-0.5c-0.4,0.1-1.6,1.4-1.6,1.4s0.4,0,0.9,0.1
				C166.5,126.5,167,126.5,167.2,126.5z M166.7,124.5c0,0,0.5-0.5,1-0.8l1,1c-0.2,0-0.7,0-1.2-0.1
				C167.1,124.6,166.7,124.5,166.7,124.5z M167.8,127.5c0,0.2-0.3,0.6-0.5,0.9c-0.2,0.4-0.4,0.7-0.5,0.8l0,0c-0.1-0.2-0.6-1.6-0.5-2
				c0.1-0.4,0.5-0.7,0.9-0.6C167.6,126.7,167.8,127.1,167.8,127.5z M169.3,125.8c0,0.2-0.3,0.6-0.6,1c-0.3,0.4-0.5,0.7-0.5,0.7
				s-0.1-0.4-0.2-0.9c-0.1-0.5-0.2-1-0.1-1.2c0.1-0.4,0.5-0.6,0.9-0.5C169.2,125,169.4,125.5,169.3,125.8z M165.7,128.3
				C165.7,128.3,165.7,128.3,165.7,128.3l-1.2-0.9c0.3-0.3,0.5-0.5,0.6-0.5c0.4-0.2,0.8,0,1,0.4
				C166.2,127.7,166.1,128.1,165.7,128.3z"/>
		</g>
		<g>
			<path class="st20" d="M164.3,130.2c0.4-0.2,0.5-0.6,0.3-1c-0.2-0.4-0.6-0.5-1-0.3c-0.2,0.1-0.5,0.5-0.9,0.9
				c-0.3,0.4-0.5,0.8-0.5,0.8s0.4,0,0.9-0.1C163.6,130.4,164.1,130.3,164.3,130.2z M163.6,128.4c0,0,0.1-0.1,0.3-0.3
				c0.2-0.2,0.4-0.4,0.6-0.6l1.2,0.9c-0.2,0.1-0.7,0.1-1.2,0.1C164,128.4,163.6,128.4,163.6,128.4z M165.1,131.2
				c0,0.4-0.6,1.6-0.7,1.8l0,0c-0.1-0.2-0.8-1.5-0.8-1.8c0-0.4,0.3-0.7,0.7-0.7C164.8,130.5,165.1,130.8,165.1,131.2z M166.4,129.3
				c0,0.2-0.2,0.6-0.4,1c-0.2,0.4-0.4,0.7-0.4,0.7s-0.2-0.4-0.4-0.8c-0.2-0.4-0.3-0.9-0.3-1.1c0-0.4,0.4-0.7,0.8-0.7
				C166.1,128.6,166.4,128.9,166.4,129.3z"/>
		</g>
	</g>
	<path class="st18" d="M230.4,89c-1-1.2-2.1-2.3-3.3-3.3V78c0-7.5-0.9-14.2-6.1-18.7c-3.3-4.8-9.5-5.1-20-8.1
		c-0.3-0.1-0.6-0.1-1-0.1c0.1,7.2,0.2,22.4,0.1,33.1c8.3,0,18.2,1.6,28.9,6.7c0.5,0.2,1.1,0.1,1.5-0.3
		C230.7,90.1,230.7,89.4,230.4,89z"/>
</g>
</svg>
